<svg width="241" height="65" viewBox="0 0 241 65" fill="none" xmlns="http://www.w3.org/2000/svg">
<path fill-rule="evenodd" clip-rule="evenodd" d="M57.1712 63.3469H52.7687H12.9017H8.49925V58.9444V15.5921L1.77322 18.5271L0 14.4915L32.8352 0L65.7316 14.4915L63.9584 18.5271L57.2324 15.5921V58.9444L57.1712 63.3469ZM12.8406 13.5743V58.8833H52.7076V13.5743L32.8352 4.83051L12.8406 13.5743Z" fill="#1B1918"/>
<path fill-rule="evenodd" clip-rule="evenodd" d="M17.3042 18.038H21.7067V22.4405H17.3042V18.038Z" fill="#FDBC00"/>
<path fill-rule="evenodd" clip-rule="evenodd" d="M43.9026 24.5806H48.3051V28.9831H43.9026V24.5806Z" fill="#FDBC00"/>
<path fill-rule="evenodd" clip-rule="evenodd" d="M17.2431 24.5806H21.6456V28.9831H17.2431V24.5806Z" fill="#FDBC00"/>
<path fill-rule="evenodd" clip-rule="evenodd" d="M23.8468 18.038H28.2493V22.4405H23.8468V18.038Z" fill="#FDBC00"/>
<path fill-rule="evenodd" clip-rule="evenodd" d="M43.9026 18.038H48.3051V22.4405H43.9026V18.038Z" fill="#FDBC00"/>
<path fill-rule="evenodd" clip-rule="evenodd" d="M27.9436 36.3817C30.0225 36.3817 31.6123 36.8709 32.8352 37.7269C33.997 36.8098 35.6479 36.3817 37.7269 36.3817C45.6147 36.3817 45.1255 44.8198 45.1255 45.309C45.1255 49.3446 43.5357 51.7293 42.5574 53.0745C42.374 53.2579 32.8964 63.347 32.8964 63.347C32.8964 63.347 23.3577 53.3191 23.2354 53.0745C22.1959 51.7904 20.6673 49.4058 20.6673 45.309C20.545 44.8198 20.0558 36.3817 27.9436 36.3817ZM34.9142 46.3485H30.7563C30.8786 43.8415 30.6951 41.946 30.4506 41.518C30.1448 40.9677 28.8608 40.8454 28.0047 40.8454C25.9258 40.8454 25.0086 41.8237 25.0086 42.8632V46.5931C25.0086 49.1 27.0264 50.8733 27.271 51.1178C33.8136 57.9662 28.4328 52.3408 32.8964 56.9878C37.36 52.3408 31.9792 57.9662 38.5218 51.1178C38.7664 50.8733 40.7842 49.1 40.7842 46.5931V42.8632C40.7842 41.7626 39.867 40.8454 37.788 40.8454C36.8709 40.8454 35.6479 40.9677 35.3422 41.518C34.9753 41.946 34.7919 43.8415 34.9142 46.3485Z" fill="#FDBC00"/>
<path fill-rule="evenodd" clip-rule="evenodd" d="M89.3694 47.9422H87.116H80V43.7205H87.116V24H90.8519L100.577 39.8458L110.184 24H113.92L113.979 47.9422H109.65L109.591 32.0964L101.526 45.2241H99.5098L91.4449 32.3277V48L89.3694 47.9422ZM182.056 28.1639H175.177V24H182.056H191.069H192.137C194.271 24 196.11 24.347 197.711 25.041C199.312 25.735 200.498 26.7181 201.328 27.9904C202.158 29.2626 202.573 30.7663 202.573 32.559C202.573 34.294 202.158 35.7976 201.328 37.0699C200.498 38.3422 199.253 39.3253 197.711 40.0193C196.11 40.7133 194.271 41.0602 192.137 41.0602H186.622V47.9422H182.056V28.1639ZM134.734 47.9422H127.974V43.7205H136.632L145.764 24H150.271L161.36 47.9422H156.616L154.185 42.3904H141.909L139.478 47.9422H137.403H134.734ZM152.583 38.9205L147.958 28.453L143.392 38.9205H152.583ZM191.959 37.2434C193.916 37.2434 195.457 36.8386 196.466 36.0289C197.474 35.2193 198.007 34.0627 198.007 32.5012C198.007 30.9976 197.474 30.2458 196.466 29.4361C195.457 28.6265 193.916 28.2217 191.959 28.2217H191.069H186.622V37.3012H191.959V37.2434ZM241 28.1639H232.876V47.8843H228.369V28.1639H220.245V24H241V28.1639Z" fill="black"/>
<path fill-rule="evenodd" clip-rule="evenodd" d="M82.548 63.2661C82.074 63.2661 81.5999 63.1376 81.2444 62.945C80.8888 62.7523 80.5333 62.4312 80.3555 61.9817C80.1185 61.5963 80 61.1468 80 60.633C80 60.1193 80.1185 59.6697 80.3555 59.2844C80.5926 58.8991 80.8888 58.578 81.2444 58.3211C81.6592 58.0642 82.074 58 82.548 58C83.0221 58 83.4369 58.1284 83.7924 58.3211C84.148 58.5138 84.385 58.8349 84.5628 59.2202L83.7332 59.7339C83.6147 59.4771 83.4369 59.3486 83.1999 59.2202C83.0221 59.0918 82.7851 59.0275 82.548 59.0275C82.1332 59.0275 81.7777 59.156 81.5407 59.4771C81.2444 59.7982 81.1259 60.1835 81.1259 60.633C81.1259 61.0826 81.2444 61.5321 81.5407 61.789C81.837 62.1101 82.1332 62.2385 82.548 62.2385C82.7851 62.2385 83.0221 62.1743 83.1999 62.0459C83.3776 61.9174 83.5554 61.7248 83.7332 61.5321L84.5628 62.0459C84.385 62.4312 84.0887 62.7523 83.7332 62.945C83.4369 63.1376 83.0221 63.2661 82.548 63.2661ZM93.3327 60.633C93.3327 60.6972 93.3327 60.8257 93.3327 61.0183H89.5996C89.6588 61.4037 89.8366 61.7248 90.1329 61.9174C90.4291 62.1101 90.7254 62.2385 91.1402 62.2385C91.6735 62.2385 92.0883 62.0459 92.4439 61.6606L93.0364 62.4312C92.7994 62.6881 92.5624 62.945 92.2068 63.0734C91.8513 63.2018 91.4958 63.2661 91.081 63.2661C90.5477 63.2661 90.0736 63.1376 89.7181 62.945C89.3033 62.6881 89.007 62.4312 88.77 61.9817C88.5329 61.5963 88.4737 61.1468 88.4737 60.633C88.4737 60.1193 88.5922 59.6697 88.77 59.2844C89.007 58.8991 89.244 58.578 89.6588 58.3211C90.0144 58.0642 90.4292 58 90.9032 58C91.3773 58 91.792 58.1284 92.1476 58.3211C92.5031 58.5138 92.7994 58.8349 92.9772 59.2844C93.2142 59.6697 93.3327 60.1193 93.3327 60.633ZM90.9032 58.9633C90.5477 58.9633 90.2514 59.0917 90.0144 59.2844C89.7773 59.5413 89.5996 59.7982 89.5403 60.1835H92.2068C92.1476 59.7982 92.0291 59.4771 91.7921 59.2844C91.6143 59.0275 91.2587 58.9633 90.9032 58.9633ZM100.562 58C101.036 58 101.451 58.1284 101.806 58.3211C102.162 58.5138 102.458 58.8349 102.636 59.2202C102.873 59.6055 102.932 60.055 102.932 60.5688C102.932 61.0826 102.814 61.5321 102.636 61.9817C102.399 62.367 102.162 62.6881 101.806 62.8807C101.451 63.0734 101.036 63.2018 100.562 63.2018C99.9102 63.2018 99.4361 62.9449 99.0213 62.4954V65H97.8955V58H98.9621V58.7064C99.1399 58.4495 99.3769 58.2569 99.6139 58.1284C99.9102 58.0642 100.206 58 100.562 58ZM100.444 62.2385C100.858 62.2385 101.214 62.1101 101.451 61.789C101.688 61.4679 101.866 61.0826 101.866 60.633C101.866 60.1835 101.747 59.734 101.451 59.4771C101.214 59.156 100.858 59.0275 100.444 59.0275C100.147 59.0275 99.9102 59.0918 99.7324 59.2202C99.4954 59.3486 99.3769 59.5413 99.1991 59.7982C99.0806 60.0551 99.0213 60.3119 99.0213 60.633C99.0213 60.9541 99.0806 61.211 99.1991 61.4679C99.3176 61.7248 99.4954 61.9174 99.7324 62.0459C99.9102 62.1743 100.147 62.2385 100.444 62.2385ZM110.873 60.5046C111.465 60.6973 111.762 61.0826 111.762 61.7248C111.762 62.1743 111.584 62.5596 111.287 62.8165C110.991 63.0734 110.517 63.2018 109.865 63.2018H107.436V58.0642H109.747C110.339 58.0642 110.754 58.1927 111.11 58.3853C111.465 58.6422 111.584 58.9633 111.584 59.3486C111.584 59.6055 111.524 59.8624 111.406 60.055C111.287 60.2477 111.11 60.3762 110.873 60.5046ZM108.502 60.1835H109.688C110.28 60.1835 110.576 59.9908 110.576 59.5413C110.576 59.0918 110.28 58.8991 109.688 58.8991H108.502V60.1835ZM109.747 62.3028C110.339 62.3028 110.636 62.1101 110.636 61.6606C110.636 61.4679 110.576 61.2752 110.399 61.1468C110.28 61.0184 110.043 60.9541 109.747 60.9541H108.443V62.3028H109.747ZM116.324 58.0642H117.45V61.4679L120.057 58.0642H121.065V63.2018H119.939V59.7982L117.332 63.2018H116.324V58.0642ZM128.116 63.2661C127.642 63.2661 127.168 63.1376 126.813 62.945C126.398 62.6881 126.102 62.4312 125.924 61.9817C125.687 61.5963 125.568 61.1468 125.568 60.633C125.568 60.1193 125.687 59.6697 125.924 59.2844C126.161 58.8991 126.457 58.578 126.813 58.3211C127.227 58.0642 127.642 58 128.116 58C128.59 58 129.005 58.1284 129.361 58.3211C129.716 58.5138 129.953 58.8349 130.131 59.2202L129.301 59.7339C129.183 59.4771 129.005 59.3486 128.768 59.2202C128.59 59.0918 128.353 59.0275 128.116 59.0275C127.702 59.0275 127.346 59.156 127.109 59.4771C126.813 59.7982 126.694 60.1835 126.694 60.633C126.694 61.0826 126.813 61.5321 127.109 61.789C127.405 62.1101 127.702 62.2385 128.116 62.2385C128.353 62.2385 128.59 62.1743 128.768 62.0459C128.946 61.9174 129.124 61.7248 129.301 61.5321L130.131 62.0459C129.953 62.4312 129.657 62.7523 129.301 62.945C129.005 63.1376 128.59 63.2661 128.116 63.2661ZM134.516 58.0642H135.642V60.1835H138.012V58.0642H139.138V63.2018H138.012V61.1468H135.642V63.2018H134.516V58.0642ZM145.775 58C146.486 58 147.019 58.1927 147.375 58.5138C147.73 58.8991 147.908 59.4129 147.908 60.1835V63.2018H146.841V62.5596C146.723 62.8165 146.486 62.945 146.249 63.0734C146.012 63.2018 145.715 63.2661 145.36 63.2661C145.004 63.2661 144.708 63.2018 144.412 63.0734C144.116 62.945 143.938 62.7523 143.819 62.4954C143.701 62.2385 143.582 61.9817 143.582 61.7248C143.582 61.2752 143.76 60.8899 144.056 60.633C144.353 60.3761 144.886 60.1835 145.538 60.1835H146.782V60.1193C146.782 59.734 146.664 59.4771 146.486 59.2844C146.308 59.0917 146.012 58.9633 145.597 58.9633C145.301 58.9633 145.064 59.0275 144.827 59.0917C144.59 59.156 144.353 59.2844 144.175 59.4771L143.76 58.578C143.997 58.3853 144.293 58.1927 144.649 58.1284C145.004 58 145.36 58 145.775 58ZM145.597 62.367C145.893 62.367 146.13 62.3027 146.367 62.1743C146.604 62.0459 146.723 61.8532 146.841 61.5963V61.0183H145.715C145.064 61.0183 144.767 61.2752 144.767 61.7248C144.767 61.9174 144.827 62.1101 145.004 62.2385C145.064 62.3027 145.301 62.367 145.597 62.367ZM156.678 58.0642V63.2018H155.671V61.6606H154.426L153.478 63.2018H152.293L153.419 61.4679C153.063 61.3395 152.826 61.1468 152.649 60.8899C152.471 60.633 152.352 60.3119 152.352 59.9266C152.352 59.3486 152.53 58.8991 152.945 58.578C153.36 58.2569 153.834 58.0642 154.545 58.0642H156.678ZM154.545 59.0275C153.834 59.0275 153.478 59.3486 153.478 59.9266C153.478 60.5046 153.834 60.8257 154.545 60.8257H155.73V59.0917H154.545V59.0275ZM173.329 61.1468H172.44V63.2018H171.314V58.0642H172.44V60.1193H173.329L174.751 58.0642H175.936L174.218 60.5688L176.055 63.2661H174.751L173.329 61.1468ZM182.218 63.2661C181.743 63.2661 181.329 63.1376 180.914 62.945C180.499 62.6881 180.203 62.4312 180.025 61.9817C179.788 61.5963 179.729 61.1468 179.729 60.633C179.729 60.1193 179.847 59.6697 180.025 59.2844C180.262 58.8991 180.558 58.578 180.914 58.3211C181.329 58.0642 181.743 58 182.218 58C182.692 58 183.166 58.1284 183.521 58.3211C183.936 58.578 184.232 58.8349 184.41 59.2844C184.588 59.7339 184.706 60.1193 184.706 60.633C184.706 61.1468 184.588 61.5963 184.41 61.9817C184.173 62.367 183.877 62.6881 183.521 62.945C183.106 63.1376 182.692 63.2661 182.218 63.2661ZM182.218 62.2385C182.632 62.2385 182.988 62.1101 183.225 61.789C183.521 61.4679 183.64 61.0826 183.64 60.633C183.64 60.1835 183.521 59.734 183.225 59.4771C182.929 59.156 182.632 59.0275 182.218 59.0275C181.803 59.0275 181.447 59.156 181.21 59.4771C180.973 59.7982 180.795 60.1835 180.795 60.633C180.795 61.0826 180.914 61.5321 181.21 61.789C181.447 62.0459 181.803 62.2385 182.218 62.2385ZM193.891 63.2018V59.7982L192.291 62.6881H191.817L190.217 59.7982V63.2018H189.21V58.0642H190.395L192.113 61.2752L193.891 58.0642H194.958V63.2018H193.891ZM204.32 58.0642V63.2018H203.194V59.0917H200.883V63.2018H199.757V58.0642H204.32ZM210.957 58C211.668 58 212.201 58.1927 212.557 58.5138C212.912 58.8991 213.09 59.4129 213.09 60.1835V63.2018H212.024V62.5596C211.905 62.8165 211.668 62.945 211.431 63.0734C211.194 63.2018 210.898 63.2661 210.542 63.2661C210.187 63.2661 209.89 63.2018 209.594 63.0734C209.298 62.945 209.12 62.7523 209.001 62.4954C208.883 62.2385 208.764 61.9817 208.764 61.7248C208.764 61.2752 208.942 60.8899 209.238 60.633C209.535 60.3761 210.068 60.1835 210.72 60.1835H211.964V60.1193C211.964 59.734 211.846 59.4771 211.668 59.2844C211.49 59.0917 211.194 58.9633 210.779 58.9633C210.483 58.9633 210.246 59.0275 210.009 59.0917C209.772 59.156 209.535 59.2844 209.357 59.4771L208.942 58.578C209.179 58.3853 209.476 58.1927 209.831 58.1284C210.187 58 210.542 58 210.957 58ZM210.779 62.367C211.075 62.367 211.312 62.3027 211.549 62.1743C211.787 62.0459 211.905 61.8532 212.024 61.5963V61.0183H210.898C210.246 61.0183 209.95 61.2752 209.95 61.7248C209.95 61.9174 210.009 62.1101 210.187 62.2385C210.305 62.3027 210.542 62.367 210.779 62.367ZM217.89 58.0642H219.016V60.1835H221.386V58.0642H222.512V63.2018H221.386V61.1468H219.016V63.2018H217.89V58.0642ZM227.371 58.0642H228.497V61.4679L231.104 58.0642H232.112V63.2018H230.986V59.7982L228.378 63.2018H227.371V58.0642ZM241 58.0642V63.2018H239.993V61.6606H238.748L237.8 63.2018H236.615L237.741 61.4679C237.385 61.3395 237.148 61.1468 236.971 60.8899C236.793 60.633 236.674 60.3119 236.674 59.9266C236.674 59.3486 236.852 58.8991 237.267 58.578C237.682 58.2569 238.156 58.0642 238.867 58.0642H241ZM238.867 59.0275C238.156 59.0275 237.8 59.3486 237.8 59.9266C237.8 60.5046 238.156 60.8257 238.867 60.8257H240.052V59.0917H238.867V59.0275Z" fill="#FFCB00"/>
</svg>
