<svg width="122" height="85" viewBox="0 0 122 85" fill="none" xmlns="http://www.w3.org/2000/svg">
<path fill-rule="evenodd" clip-rule="evenodd" d="M0 28.127H47.9148L54.1511 37.1244L61.2186 28.127H110.8V57.7321H63.7965L52.9037 43.7359L42.3437 57.7321H0V28.127Z" fill="black"/>
<path d="M21.218 45.6448H13.257V38.6865H11.5635V47.1718H21.218V45.6448ZM39.2065 38.6865H37.5124V45.6448H29.0434V38.6865H27.3499V45.6448C27.3499 45.6448 27.3499 47.1718 28.8744 47.1718H37.6819C39.2571 47.1718 39.2065 45.6448 39.2065 45.6448V38.6865ZM77.6895 38.6865H68.8819C67.3574 38.6865 67.3574 40.2135 67.3574 40.2135V47.1718H69.0509V44.4564H77.52V47.1718H79.214V40.2135C79.214 40.2135 79.214 38.6865 77.6895 38.6865ZM69.0509 40.2135H77.52V42.9289H69.0509V40.2135ZM99.2344 47.1718L97.2019 44.4564C98.8959 44.4564 98.8959 42.9289 98.8959 42.9289V40.2135C98.8959 40.2135 98.8959 38.6865 97.2019 38.6865H87.0393V47.1718H88.7328V44.4564H95.3389L97.3714 47.1718H99.2344ZM97.2019 42.9289H88.7328V40.2135H97.2019V42.9289Z" fill="#FEFEFE"/>
<path d="M121.542 55.5938C121.542 55.9566 121.492 56.2885 121.392 56.5908C121.291 56.893 121.087 57.1372 120.781 57.3235C120.474 57.5098 120.009 57.6031 119.386 57.6031H114.335C113.792 57.6031 113.378 57.5026 113.091 57.3009C112.805 57.0993 112.609 56.8253 112.503 56.4774C112.397 56.13 112.345 55.7298 112.345 55.2767C112.345 54.8231 112.4 54.4229 112.511 54.0755C112.621 53.7281 112.817 53.4536 113.099 53.2519C113.38 53.0508 113.792 52.9502 114.335 52.9502H115.511V54.0832H114.305C113.953 54.0832 113.69 54.1335 113.513 54.234C113.338 54.3346 113.222 54.4731 113.167 54.6497C113.111 54.8257 113.084 55.0299 113.084 55.2613C113.084 55.4932 113.111 55.6969 113.167 55.8734C113.222 56.0494 113.338 56.188 113.513 56.2885C113.69 56.3896 113.953 56.4399 114.305 56.4399H119.613C119.974 56.4399 120.243 56.3896 120.419 56.2885C120.595 56.188 120.711 56.0494 120.766 55.8734C120.821 55.6969 120.849 55.4932 120.849 55.2613C120.849 54.919 120.743 54.6368 120.532 54.4152C120.321 54.194 120.015 54.0832 119.613 54.0832H117.788V55.1253H117.095V52.9502H121.376V53.8261L120.562 53.8867C120.622 53.9169 120.68 53.9498 120.736 53.9847C120.791 54.0201 120.839 54.0529 120.879 54.0832C121.07 54.214 121.228 54.4003 121.354 54.642C121.48 54.8836 121.542 55.2007 121.542 55.5938ZM121.376 51.4088H112.466V48.4784C112.466 47.9443 112.588 47.5241 112.835 47.2167C113.081 46.9099 113.455 46.7559 113.958 46.7559H115.375C115.888 46.7559 116.29 46.9022 116.582 47.1941C116.873 47.4861 117.029 47.894 117.049 48.4179C117.069 48.0854 117.18 47.8412 117.381 47.6852C117.582 47.5292 117.893 47.3906 118.316 47.2696L121.376 46.3783V47.6472L118.391 48.4179C118.21 48.4682 118.039 48.5287 117.879 48.599C117.718 48.6698 117.589 48.755 117.494 48.8561C117.398 48.9567 117.351 49.0926 117.351 49.264V50.2005H121.376V51.4088ZM116.536 50.2005V49.0223C116.536 48.6493 116.446 48.3702 116.265 48.1839C116.084 47.9972 115.773 47.9043 115.33 47.9043H114.154C113.792 47.9043 113.531 47.9925 113.37 48.1685C113.209 48.345 113.129 48.559 113.129 48.8104V50.2005H116.536ZM121.558 42.9491C121.558 43.4022 121.505 43.7999 121.399 44.1426C121.293 44.4849 121.075 44.7568 120.743 44.9585C120.411 45.1596 119.914 45.2602 119.251 45.2602H114.335C113.782 45.2602 113.363 45.1596 113.076 44.9585C112.79 44.7568 112.596 44.4823 112.496 44.1349C112.395 43.7876 112.345 43.3873 112.345 42.9337C112.345 42.4807 112.397 42.0804 112.503 41.7331C112.609 41.3852 112.802 41.1112 113.084 40.9095C113.365 40.7084 113.782 40.6073 114.335 40.6073H119.251C119.924 40.6073 120.424 40.7084 120.751 40.9095C121.077 41.1112 121.293 41.3877 121.399 41.7402C121.505 42.0928 121.558 42.4956 121.558 42.9491ZM120.849 42.9491C120.849 42.7172 120.819 42.5135 120.758 42.337C120.698 42.161 120.58 42.0225 120.404 41.9219C120.228 41.8208 119.964 41.7705 119.613 41.7705H114.305C113.964 41.7705 113.704 41.8208 113.529 41.9219C113.353 42.0225 113.234 42.161 113.174 42.337C113.114 42.5135 113.084 42.7172 113.084 42.9491C113.084 43.1806 113.114 43.3822 113.174 43.5531C113.234 43.7245 113.353 43.8604 113.529 43.961C113.704 44.0621 113.964 44.1124 114.305 44.1124H119.613C119.964 44.1124 120.228 44.0621 120.404 43.961C120.58 43.8604 120.698 43.7245 120.758 43.5531C120.819 43.3822 120.849 43.1806 120.849 42.9491ZM121.558 36.7702C121.558 37.0925 121.532 37.3947 121.482 37.6764C121.432 37.9586 121.334 38.2029 121.188 38.4091C121.042 38.6159 120.826 38.7796 120.54 38.9002C120.253 39.0213 119.869 39.0818 119.386 39.0818H112.466V37.9032H119.658C119.979 37.9032 120.223 37.8503 120.389 37.7446C120.555 37.6389 120.668 37.5004 120.728 37.329C120.788 37.1582 120.819 36.9714 120.819 36.7702C120.819 36.5686 120.788 36.3798 120.728 36.2038C120.668 36.0272 120.555 35.8867 120.389 35.7804C120.223 35.6747 119.979 35.6219 119.658 35.6219H112.466V34.4741H119.386C119.858 34.4741 120.24 34.532 120.532 34.6475C120.824 34.7635 121.042 34.9246 121.188 35.1308C121.334 35.3376 121.432 35.5819 121.482 35.8636C121.532 36.1458 121.558 36.448 121.558 36.7702ZM121.376 32.7967H112.466V29.9115C112.466 29.3778 112.588 28.9571 112.835 28.6502C113.081 28.3429 113.455 28.1895 113.958 28.1895H115.572C115.923 28.1895 116.255 28.2372 116.567 28.3326C116.878 28.4286 117.129 28.6123 117.32 28.8842C117.511 29.1562 117.607 29.5487 117.607 30.0623V31.5734H121.376V32.7967ZM116.929 31.5734V30.4405C116.929 30.0777 116.808 29.8058 116.567 29.6246C116.325 29.443 115.943 29.3527 115.421 29.3527H114.425C113.973 29.3527 113.644 29.4358 113.438 29.6015C113.232 29.7678 113.129 29.9771 113.129 30.2286V31.5734H116.929Z" fill="#6B8C9E"/>
<mask id="mask0_57_98" style="mask-type:alpha" maskUnits="userSpaceOnUse" x="22" y="0" width="61" height="85">
<path fill-rule="evenodd" clip-rule="evenodd" d="M53.0316 46.5511L22.5869 84.9088L49.5539 41.3722L35.5522 20.5235H44.3285L54.2555 35.3052L82.2769 0L57.4566 40.0715L74.3691 65.2545H65.5928L53.0316 46.5511Z" fill="#62D8D8"/>
</mask>
<g mask="url(#mask0_57_98)">
<path d="M13.8202 -3.77637H87.8202V91.2236H13.8202V-3.77637Z" fill="#62D6D6"/>
<path fill-rule="evenodd" clip-rule="evenodd" d="M44.1955 98.8826L12.4081 78.3037L32.1801 47.6416L63.967 68.2205L44.1955 98.8826Z" fill="url(#paint0_linear_57_98)"/>
<path fill-rule="evenodd" clip-rule="evenodd" d="M70.382 -12.0928L100.302 11.1172L77.9921 39.985L48.0723 16.775L70.382 -12.0928Z" fill="url(#paint1_linear_57_98)"/>
<path fill-rule="evenodd" clip-rule="evenodd" d="M96.6103 58.4456L73.9107 88.755L44.669 66.9371L67.3686 36.6283L96.6103 58.4456Z" fill="url(#paint2_linear_57_98)"/>
<path fill-rule="evenodd" clip-rule="evenodd" d="M8.50174 19.4183L37.9874 -4.34144L60.9305 24.026L31.4451 47.7852L8.50174 19.4183Z" fill="url(#paint3_linear_57_98)"/>
</g>
<defs>
<linearGradient id="paint0_linear_57_98" x1="28.302" y1="88.5932" x2="48.1289" y2="57.9669" gradientUnits="userSpaceOnUse">
<stop stop-color="#2B2A29"/>
<stop offset="0.164706" stop-color="#252325"/>
<stop offset="0.258824" stop-color="#1F1B20"/>
<stop offset="1" stop-color="#62D8D8"/>
</linearGradient>
<linearGradient id="paint1_linear_57_98" x1="85.3419" y1="-0.48785" x2="62.9801" y2="28.3396" gradientUnits="userSpaceOnUse">
<stop stop-color="#2B2A29"/>
<stop offset="0.164706" stop-color="#252325"/>
<stop offset="0.258824" stop-color="#1F1B20"/>
<stop offset="1" stop-color="#62D8D8"/>
</linearGradient>
<linearGradient id="paint2_linear_57_98" x1="85.2605" y1="73.6001" x2="56.0583" y2="51.7299" gradientUnits="userSpaceOnUse">
<stop stop-color="#2B2A29"/>
<stop offset="0.164706" stop-color="#252325"/>
<stop offset="0.258824" stop-color="#1F1B20"/>
<stop offset="1" stop-color="#62D8D8"/>
</linearGradient>
<linearGradient id="paint3_linear_57_98" x1="23.2445" y1="7.53869" x2="46.1365" y2="35.947" gradientUnits="userSpaceOnUse">
<stop stop-color="#2B2A29"/>
<stop offset="0.164706" stop-color="#252325"/>
<stop offset="0.258824" stop-color="#1F1B20"/>
<stop offset="1" stop-color="#62D8D8"/>
</linearGradient>
</defs>
</svg>
