<svg width="28" height="31" viewBox="0 0 28 31" fill="none" xmlns="http://www.w3.org/2000/svg">
<path d="M5.8125 0C4.74687 0 3.875 0.871875 3.875 1.9375V29.0625C3.875 30.1281 4.74687 31 5.8125 31H25.1875C26.2531 31 27.125 30.1281 27.125 29.0625V7.75L19.375 0H5.8125Z" fill="#E2E5E7"/>
<path d="M21.3125 7.75H27.125L19.375 0V5.8125C19.375 6.87813 20.2469 7.75 21.3125 7.75Z" fill="#B0B7BD"/>
<path d="M27.125 13.5625L21.3125 7.75H27.125V13.5625Z" fill="#CAD1D8"/>
<path d="M23.25 25.1875C23.25 25.7203 22.8141 26.1562 22.2812 26.1562H0.96875C0.435937 26.1562 0 25.7203 0 25.1875V15.5C0 14.9672 0.435937 14.5312 0.96875 14.5312H22.2812C22.8141 14.5312 23.25 14.9672 23.25 15.5V25.1875Z" fill="#F15642"/>
<path d="M4.22266 18.3549C4.22266 18.0992 4.42416 17.8202 4.74869 17.8202H6.53797C7.54547 17.8202 8.45222 18.4944 8.45222 19.7867C8.45222 21.0112 7.54547 21.6932 6.53797 21.6932H5.24469V22.7162C5.24469 23.0572 5.02769 23.25 4.74869 23.25C4.49294 23.25 4.22266 23.0572 4.22266 22.7162V18.3549ZM5.24469 18.7957V20.7254H6.53797C7.05722 20.7254 7.46797 20.2672 7.46797 19.7867C7.46797 19.2452 7.05722 18.7957 6.53797 18.7957H5.24469ZM9.96928 23.25C9.71353 23.25 9.43453 23.1105 9.43453 22.7705V18.3704C9.43453 18.0924 9.71353 17.8899 9.96928 17.8899H11.7431C15.2829 17.8899 15.2054 23.25 11.8128 23.25H9.96928ZM10.4575 18.8354V22.3055H11.7431C13.8346 22.3055 13.9276 18.8354 11.7431 18.8354H10.4575ZM16.4609 18.8974V20.1287H18.4362C18.7152 20.1287 18.9942 20.4077 18.9942 20.678C18.9942 20.9337 18.7152 21.143 18.4362 21.143H16.4609V22.7695C16.4609 23.0408 16.2681 23.249 15.9968 23.249C15.6558 23.249 15.4476 23.0408 15.4476 22.7695V18.3694C15.4476 18.0914 15.6568 17.8889 15.9968 17.8889H18.7161C19.0571 17.8889 19.2586 18.0914 19.2586 18.3694C19.2586 18.6174 19.0571 18.8964 18.7161 18.8964H16.4609V18.8974Z" fill="white"/>
<path d="M22.2812 26.1562H3.875V27.125H22.2812C22.8141 27.125 23.25 26.6891 23.25 26.1562V25.1875C23.25 25.7203 22.8141 26.1562 22.2812 26.1562Z" fill="#CAD1D8"/>
</svg>
