<svg width="17" height="15" viewBox="0 0 17 15" fill="none" xmlns="http://www.w3.org/2000/svg">
<path d="M2.63259 6.87638H1.88259H2.63259ZM2.63259 8.01836L2.07111 8.51559C2.2064 8.66836 2.39809 8.7594 2.60198 8.76773C2.80587 8.77606 3.00435 8.70095 3.15164 8.55973L2.63259 8.01836ZM5.15265 6.64121C5.45164 6.35454 5.46163 5.87977 5.17496 5.58078C4.8883 5.28179 4.41353 5.2718 4.11454 5.55847L5.15265 6.64121ZM1.49507 5.6026C1.22046 5.29251 0.746457 5.26374 0.43636 5.53836C0.126264 5.81297 0.0975 6.28697 0.372114 6.59707L1.49507 5.6026ZM12.0778 3.52581C12.3591 3.82987 12.8336 3.84834 13.1376 3.56706C13.4417 3.28578 13.4602 2.81126 13.1789 2.5072L12.0778 3.52581ZM8.3875 0.416504C4.8005 0.416504 1.88259 3.30314 1.88259 6.87638H3.38259C3.38259 4.14266 5.6178 1.9165 8.3875 1.9165V0.416504ZM1.88259 6.87638L1.88259 8.01836L3.38259 8.01836L3.38259 6.87638L1.88259 6.87638ZM3.15164 8.55973L5.15265 6.64121L4.11454 5.55847L2.11354 7.47698L3.15164 8.55973ZM3.19407 7.52112L1.49507 5.6026L0.372114 6.59707L2.07111 8.51559L3.19407 7.52112ZM13.1789 2.5072C11.9902 1.22227 10.2825 0.416504 8.3875 0.416504V1.9165C9.84918 1.9165 11.1625 2.53641 12.0778 3.52581L13.1789 2.5072Z" fill="#FDBC00"/>
<path d="M14.0298 6.64795L14.5904 6.14982C14.455 5.99734 14.2633 5.90661 14.0595 5.89854C13.8557 5.89046 13.6574 5.96574 13.5102 6.10702L14.0298 6.64795ZM11.5138 8.02447C11.215 8.31139 11.2054 8.78616 11.4923 9.08491C11.7793 9.38366 12.254 9.39325 12.5528 9.10633L11.5138 8.02447ZM15.1726 9.06352C15.4477 9.37318 15.9217 9.40119 16.2314 9.12608C16.5411 8.85098 16.5691 8.37693 16.294 8.06727L15.1726 9.06352ZM4.56348 11.1588C4.28002 10.8568 3.80539 10.8418 3.50336 11.1252C3.20132 11.4087 3.18626 11.8833 3.46972 12.1853L4.56348 11.1588ZM8.25285 14.2498C11.8493 14.2498 14.7798 11.3658 14.7798 7.78992H13.2798C13.2798 10.521 11.0374 12.7498 8.25285 12.7498V14.2498ZM14.7798 7.78992V6.64795H13.2798V7.78992H14.7798ZM13.5102 6.10702L11.5138 8.02447L12.5528 9.10633L14.5493 7.18888L13.5102 6.10702ZM13.4691 7.14608L15.1726 9.06352L16.294 8.06727L14.5904 6.14982L13.4691 7.14608ZM3.46972 12.1853C4.66163 13.4554 6.36489 14.2498 8.25285 14.2498V12.7498C6.79336 12.7498 5.48166 12.1372 4.56348 11.1588L3.46972 12.1853Z" fill="#FDBC00"/>
</svg>
